# xmcd CD database file
#
# Track frame offsets:
#	150
#	12195
#	29442
#	41787
#	53512
#	76985
#	116037
#	140660
#	156642
#	177412
#	194887
#	217147
#	232327
#	257337
#	274505
#	298605
#	317765
#
# Disc length: 4568 seconds
#
# Revision: 3
# Processed by: cddbd v1.5.2PL0 Copyright (c) Steve Scherf et al.
# Submitted via: CDex 1.51
#
DISCID=0811d611
DTITLE=B.B.King - Greatest Hits
DYEAR=1900
DGENRE=Blues
TTITLE0=Every Day I Have The Blues (Live)
TTITLE1=Sweet Little Angel (Live)
TTITLE2=Hot Blue Can You Got?
TTITLE3=Paying The Cost To Be The Boss
TTITLE4=Don't Answer The Door
TTITLE5=Why I Sing The Blues
TTITLE6=The Thrill Is Gone
TTITLE7=I Like To Live The Love
TTITLE8=Hummingbird
TTITLE9=To Know You Is To Love You
TTITLE10=Chains And Thing
TTITLE11=Better Not Look Down
TTITLE12=Never Make A Move Too Soon
TTITLE13=Threr Must Be A Better World Somewhere
TTITLE14=Playn' With My Friends (with Robert Cray)
TTITLE15=When Love Comes To Town (7" Version) (with U2)
TTITLE16=Let The Good Times Roll
EXTD=
EXTT0=
EXTT1=
EXTT2=
EXTT3=
EXTT4=
EXTT5=
EXTT6=
EXTT7=
EXTT8=
EXTT9=
EXTT10=
EXTT11=
EXTT12=
EXTT13=
EXTT14=
EXTT15=
EXTT16=
PLAYORDER=
